<?xml version="1.0" standalone="no"?>
<!DOCTYPE svg PUBLIC "-//W3C//DTD SVG 20010904//EN"
 "http://www.w3.org/TR/2001/REC-SVG-20010904/DTD/svg10.dtd">
<svg version="1.0" xmlns="http://www.w3.org/2000/svg"
 width="468.000000pt" height="468.000000pt" viewBox="0 0 468.000000 468.000000"
 preserveAspectRatio="xMidYMid meet">

<g transform="translate(0.000000,468.000000) scale(0.100000,-0.100000)"
fill="#000000" stroke="none">
<path d="M997 4139 c-94 -22 -214 -110 -262 -194 -13 -22 -105 -260 -204 -528
l-181 -488 -129 -127 c-106 -104 -134 -139 -160 -193 -63 -135 -62 -120 -59
-977 l3 -777 23 -57 c44 -109 131 -196 240 -240 54 -22 71 -23 282 -23 212 0
228 1 283 23 109 44 195 133 240 246 16 41 21 81 25 199 l4 147 1238 0 1238 0
4 -147 c4 -122 9 -158 27 -205 42 -108 129 -196 239 -240 54 -22 71 -23 282
-23 212 0 228 1 283 23 108 44 194 131 241 246 21 50 21 65 24 841 2 696 1
799 -13 863 -25 112 -72 195 -176 308 l-91 100 -182 490 c-100 269 -192 509
-205 532 -28 54 -93 121 -152 155 -101 59 -40 57 -1494 56 -732 -1 -1347 -5
-1368 -10z m2712 -199 c46 -13 93 -47 119 -84 18 -27 332 -856 332 -878 0 -4
-51 -8 -114 -8 l-113 0 -13 63 c-23 107 -91 228 -179 315 -86 87 -156 132
-261 168 -321 112 -682 -33 -833 -335 -26 -50 -52 -119 -59 -151 l-12 -60
-999 0 c-795 0 -998 3 -994 13 2 6 73 196 156 420 83 225 158 421 166 437 19
36 81 88 120 99 42 13 2641 14 2684 1z m-384 -590 c152 -22 293 -125 359 -264
19 -39 38 -81 41 -93 l6 -23 -476 0 -477 0 6 28 c15 64 71 157 128 214 68 68
170 122 258 137 75 12 76 12 155 1z m1010 -661 c52 -54 87 -102 108 -147 l32
-67 3 -470 c3 -412 1 -475 -13 -512 -24 -61 -52 -93 -109 -119 l-51 -24 -1965
0 -1965 0 -51 24 c-58 27 -96 72 -114 131 -8 28 -10 169 -8 485 4 549 -5 510
160 673 l109 107 1893 0 1893 0 78 -81z m-4030 -1523 c46 -13 117 -16 328 -16
l269 0 -4 -133 c-3 -129 -4 -136 -33 -182 -22 -36 -45 -57 -84 -77 -53 -28
-56 -28 -231 -28 -175 0 -178 0 -231 28 -39 20 -62 41 -84 77 -30 48 -30 50
-33 212 l-3 164 23 -15 c13 -8 50 -22 83 -30z m4148 -316 c-21 -40 -41 -62
-77 -85 l-49 -30 -186 -3 -186 -3 -55 28 c-40 21 -63 42 -85 78 -29 46 -30 53
-33 182 l-4 133 269 0 c274 0 354 9 408 44 20 13 20 11 23 -138 3 -148 2 -152
-25 -206z"/>
<path d="M521 2356 c-48 -27 -50 -42 -51 -344 0 -307 3 -326 55 -350 41 -19
807 -17 844 2 48 25 51 45 51 346 0 301 -3 321 -51 346 -39 20 -812 20 -848 0z
m699 -346 l0 -160 -275 0 -275 0 0 160 0 160 275 0 275 0 0 -160z"/>
<path d="M3311 2356 c-48 -27 -50 -42 -51 -344 0 -307 3 -326 55 -350 41 -19
807 -17 844 2 48 25 51 45 51 346 0 301 -3 321 -51 346 -39 20 -812 20 -848 0z
m699 -346 l0 -160 -275 0 -275 0 0 160 0 160 275 0 275 0 0 -160z"/>
<path d="M1808 2244 c-34 -18 -48 -43 -48 -84 0 -42 15 -67 50 -85 44 -23
1016 -23 1060 0 35 18 50 43 50 85 0 42 -15 67 -50 85 -43 22 -1021 22 -1062
-1z"/>
<path d="M1808 1934 c-34 -18 -48 -43 -48 -84 0 -42 15 -67 50 -85 44 -23
1016 -23 1060 0 35 18 50 43 50 85 0 42 -15 67 -50 85 -43 22 -1021 22 -1062
-1z"/>
</g>
</svg>
