<?xml version="1.0" standalone="no"?>
<!DOCTYPE svg PUBLIC "-//W3C//DTD SVG 20010904//EN"
 "http://www.w3.org/TR/2001/REC-SVG-20010904/DTD/svg10.dtd">
<svg version="1.0" xmlns="http://www.w3.org/2000/svg"
 width="482.000000pt" height="482.000000pt" viewBox="0 0 482.000000 482.000000"
 preserveAspectRatio="xMidYMid meet">

<g transform="translate(0.000000,482.000000) scale(0.100000,-0.100000)"
fill="#000000" stroke="none">
<path d="M1175 4416 c-60 -28 -87 -56 -114 -116 -40 -88 -22 -180 50 -252 58
-58 92 -68 240 -68 l116 0 67 -147 67 -146 -20 -46 c-11 -25 -78 -170 -150
-321 -100 -211 -135 -275 -149 -274 -9 1 -44 9 -77 18 -264 72 -554 23 -787
-135 -245 -167 -401 -447 -415 -749 -23 -467 302 -882 767 -981 l85 -18 -427
0 -428 -1 0 -80 0 -80 2400 0 2400 0 0 80 0 80 -347 0 -348 1 52 19 c262 94
470 283 578 525 167 375 77 823 -221 1106 -248 234 -623 327 -934 230 -36 -11
-67 -17 -71 -13 -9 10 -499 1075 -499 1085 0 4 109 7 243 7 276 0 297 -5 331
-73 23 -49 15 -94 -24 -132 -25 -24 -42 -30 -97 -36 -52 -5 -71 -12 -85 -29
-26 -32 -23 -76 7 -105 49 -49 194 -27 274 42 98 83 125 223 66 338 -19 37
-46 72 -73 92 -77 59 -110 63 -464 63 -454 0 -441 13 -297 -298 50 -108 98
-212 105 -229 l14 -33 -628 0 -629 0 -52 113 c-28 61 -51 115 -51 120 0 4 23
7 50 7 199 0 293 228 147 357 -19 17 -50 36 -69 42 -34 10 -464 61 -521 61
-18 0 -54 -11 -82 -24z m325 -161 c118 -14 221 -25 228 -25 21 0 36 -44 23
-69 -11 -21 -17 -21 -258 -21 -240 0 -247 1 -270 22 -29 27 -29 65 -1 95 26
28 15 28 278 -2z m1488 -684 c-1 -5 -121 -258 -266 -562 l-262 -554 -59 0 -59
0 -252 550 c-139 303 -255 556 -257 563 -4 9 115 12 577 12 339 0 580 -4 578
-9z m-1041 -638 l251 -548 -30 -30 c-17 -16 -42 -54 -55 -82 l-24 -53 -88 0
-88 0 -6 59 c-8 73 -50 207 -90 286 -70 139 -193 282 -314 363 l-62 42 121
255 c67 140 124 255 128 255 4 0 119 -246 257 -547z m1302 292 c61 -131 111
-242 111 -247 0 -4 -26 -24 -57 -44 -88 -56 -240 -215 -294 -309 -91 -158
-127 -279 -136 -460 -20 -426 241 -817 643 -960 l69 -24 -1265 0 c-1105 1
-1255 3 -1189 15 231 41 452 178 596 368 90 119 183 354 183 464 l0 32 88 0
88 0 22 -48 c51 -112 146 -180 265 -189 135 -11 249 53 309 174 29 59 33 78
33 143 0 87 -22 144 -77 206 l-35 39 260 548 c143 301 264 544 268 540 4 -4
57 -116 118 -248z m-2101 -310 c67 -15 73 -19 68 -38 -3 -12 -80 -179 -171
-371 -91 -192 -165 -359 -165 -373 0 -13 11 -35 25 -48 l24 -25 412 0 412 0
-7 -55 c-15 -134 -107 -313 -217 -424 -102 -103 -195 -159 -339 -206 -76 -25
-100 -28 -225 -29 -117 -1 -153 3 -218 22 -263 76 -459 262 -549 522 -31 91
-32 102 -33 245 0 130 3 160 23 225 95 301 321 505 627 566 86 17 233 12 333
-11z m2812 15 c322 -51 580 -287 660 -604 27 -108 27 -274 0 -382 -58 -230
-221 -429 -435 -530 -128 -60 -207 -77 -345 -77 -232 1 -428 86 -587 256 -285
305 -283 783 4 1088 63 67 151 139 170 139 5 0 84 -164 177 -365 101 -219 177
-372 190 -380 46 -33 126 2 126 55 0 12 -76 187 -170 390 -93 203 -170 371
-170 374 0 4 110 30 170 39 51 8 147 7 210 -3z m-2435 -235 c73 -72 100 -108
137 -180 47 -91 88 -216 88 -267 l0 -28 -330 0 c-181 0 -330 2 -330 4 0 2 50
109 111 237 61 129 124 262 140 297 l29 63 32 -18 c18 -10 74 -58 123 -108z
m942 -415 c65 -29 102 -103 89 -176 -10 -48 -71 -110 -119 -119 -60 -11 -107
3 -148 44 -60 60 -65 149 -12 212 50 59 117 73 190 39z"/>
<path d="M371 2352 c-48 -48 -65 -209 -36 -347 32 -152 161 -345 231 -345 35
0 71 30 80 66 5 18 -1 35 -20 62 -15 20 -42 58 -61 85 -73 103 -97 235 -71
399 8 53 7 58 -17 82 -34 34 -71 33 -106 -2z"/>
<path d="M746 1657 c-49 -50 -25 -115 51 -137 21 -6 72 -13 115 -17 73 -6 77
-5 102 20 28 28 32 52 15 91 -14 29 -44 42 -119 51 -30 3 -74 9 -97 12 -35 5
-45 2 -67 -20z"/>
<path d="M3861 2744 c-40 -51 -17 -116 46 -129 16 -4 55 -15 89 -26 78 -25
116 -24 139 1 24 26 24 83 1 108 -22 25 -163 72 -215 72 -31 0 -44 -6 -60 -26z"/>
<path d="M4265 2528 c-56 -30 -57 -62 -6 -163 52 -101 68 -192 52 -295 -16
-109 -15 -126 15 -149 56 -44 114 -13 135 71 8 29 13 100 13 158 -1 86 -6 119
-28 184 -32 93 -68 158 -103 186 -29 22 -49 25 -78 8z"/>
<path d="M105 515 c-16 -15 -25 -36 -25 -55 0 -19 9 -40 25 -55 l24 -25 511 0
511 0 26 26 c21 21 24 32 19 62 -11 75 13 72 -558 72 l-509 0 -24 -25z"/>
<path d="M1785 515 c-16 -15 -25 -36 -25 -55 0 -19 9 -40 25 -55 l24 -25 589
0 c571 0 589 1 609 20 12 10 24 29 28 40 10 30 -12 75 -41 89 -18 8 -195 11
-605 11 l-580 0 -24 -25z"/>
<path d="M3625 515 c-16 -15 -25 -36 -25 -55 0 -19 9 -40 25 -55 l24 -25 509
0 c491 0 509 1 529 20 12 10 24 29 28 40 10 30 -12 75 -41 89 -18 8 -175 11
-525 11 l-500 0 -24 -25z"/>
</g>
</svg>
