<?xml version="1.0" standalone="no"?>
<!DOCTYPE svg PUBLIC "-//W3C//DTD SVG 20010904//EN"
 "http://www.w3.org/TR/2001/REC-SVG-20010904/DTD/svg10.dtd">
<svg version="1.0" xmlns="http://www.w3.org/2000/svg"
 width="480.000000pt" height="480.000000pt" viewBox="0 0 480.000000 480.000000"
 preserveAspectRatio="xMidYMid meet">

<g transform="translate(0.000000,480.000000) scale(0.100000,-0.100000)"
fill="#000000" stroke="none">
<path d="M1205 4785 c-269 -50 -505 -226 -625 -465 -20 -41 -43 -93 -50 -115
-17 -53 -24 -61 -62 -69 -18 -3 -70 -25 -116 -47 -198 -96 -336 -306 -349
-533 -18 -317 203 -602 511 -661 114 -22 152 -20 181 10 51 51 15 135 -58 135
-118 0 -243 54 -335 146 -184 184 -187 475 -5 665 181 190 481 197 672 14 90
-86 151 -220 151 -333 0 -54 33 -92 80 -92 49 0 80 38 80 97 -1 226 -150 454
-365 558 -54 26 -192 65 -229 65 -12 0 47 116 88 174 102 142 253 244 426 287
71 18 250 18 319 0 285 -72 493 -289 547 -569 8 -40 14 -94 14 -118 0 -56 33
-94 80 -94 49 0 80 38 80 98 0 144 -57 329 -142 459 -194 297 -550 452 -893
388z"/>
<path d="M3551 3455 c-198 -43 -317 -111 -489 -280 -89 -87 -102 -104 -102
-133 0 -44 38 -82 81 -82 27 0 48 16 133 99 112 108 167 149 259 191 130 58
297 75 442 45 82 -17 234 -89 288 -137 l38 -33 -80 -64 c-44 -35 -82 -70 -85
-78 -12 -31 -5 -65 19 -88 41 -42 72 -34 171 46 101 82 136 99 196 99 167 0
275 -219 184 -375 -34 -58 -154 -161 -203 -174 -24 -7 -200 -11 -476 -11
l-438 0 -24 -25 c-33 -32 -33 -78 0 -110 l24 -25 449 0 c498 0 510 1 608 66
128 85 217 201 243 315 57 244 -119 486 -358 495 -66 3 -78 6 -105 32 -175
162 -381 243 -614 241 -54 0 -126 -7 -161 -14z"/>
<path d="M2432 3343 c-11 -10 -213 -424 -448 -920 -236 -496 -429 -901 -431
-899 -2 1 -66 173 -143 382 -91 246 -148 385 -161 397 -12 9 -34 17 -49 17
-15 0 -37 -8 -48 -17 -26 -23 -1072 -2197 -1072 -2229 0 -14 11 -36 25 -49
l24 -25 2271 0 2271 0 24 25 c14 13 25 35 25 47 0 40 -568 1491 -591 1511 -23
19 -61 22 -88 7 -10 -5 -85 -119 -167 -254 -82 -134 -152 -241 -156 -238 -3 4
-268 507 -588 1117 -320 611 -591 1118 -602 1128 -11 9 -33 17 -48 17 -15 0
-37 -8 -48 -17z m367 -841 c165 -316 301 -575 301 -577 0 -12 -225 -280 -235
-279 -6 1 -107 81 -224 178 -176 147 -217 176 -243 176 -28 0 -55 -23 -215
-182 l-183 -183 -72 72 -72 73 25 52 c14 29 156 327 314 661 170 357 292 602
296 595 4 -7 142 -271 308 -586z m-1472 -834 l130 -352 -34 -76 c-19 -41 -38
-79 -43 -84 -4 -4 -43 3 -87 18 -43 14 -89 26 -102 26 -17 0 -53 -29 -120 -95
-54 -52 -100 -95 -103 -95 -11 0 -163 212 -160 223 7 27 376 787 382 787 4 0
65 -159 137 -352z m1289 -31 l190 -158 37 -305 c21 -169 43 -316 48 -328 6
-12 97 -91 204 -176 l193 -154 26 -161 c14 -89 26 -169 26 -178 0 -16 -58 -17
-835 -17 -459 0 -835 2 -835 5 0 3 74 124 164 268 l165 262 39 394 39 393 164
164 c98 98 167 160 174 156 7 -4 97 -78 201 -165z m993 -680 l419 -797 -259 0
-259 0 -5 23 c-3 12 -19 105 -35 207 -17 102 -33 192 -36 202 -3 9 -87 82
-188 162 -101 81 -190 154 -197 163 -9 10 -28 125 -50 297 l-36 281 105 133
c58 73 110 131 114 130 5 -2 197 -362 427 -801z m-1729 158 l-38 -370 -183
-293 -183 -292 -194 0 c-151 0 -193 3 -189 12 3 7 141 299 307 648 166 349
320 673 342 719 l39 85 68 -70 69 -69 -38 -370z m2245 68 c32 -82 75 -191 95
-243 21 -52 37 -96 35 -98 -1 -1 -43 8 -94 20 l-91 22 -67 -33 -66 -32 -60 59
-59 59 118 196 c66 108 122 196 126 197 3 0 32 -66 63 -147z m-3310 -243 c92
-125 108 -140 148 -140 25 0 50 19 146 114 l116 114 42 -15 41 -14 -48 -102
c-27 -56 -116 -244 -198 -417 l-150 -315 -311 -3 c-171 -1 -311 -1 -311 1 0 2
81 172 181 378 100 206 197 407 215 448 20 42 38 70 43 65 4 -5 43 -56 86
-114z m3403 -257 c59 -14 108 -27 110 -28 4 -3 192 -485 192 -491 0 -3 -71 -3
-157 -2 l-157 3 -127 240 -126 240 61 32 c34 18 69 32 79 33 10 0 66 -12 125
-27z"/>
<path d="M905 3015 c-16 -15 -25 -36 -25 -55 0 -19 9 -40 25 -55 23 -24 28
-25 175 -25 147 0 152 1 175 25 16 15 25 36 25 55 0 19 -9 40 -25 55 -23 24
-28 25 -175 25 -147 0 -152 -1 -175 -25z"/>
</g>
</svg>
