<?xml version="1.0" standalone="no"?>
<!DOCTYPE svg PUBLIC "-//W3C//DTD SVG 20010904//EN"
 "http://www.w3.org/TR/2001/REC-SVG-20010904/DTD/svg10.dtd">
<svg version="1.0" xmlns="http://www.w3.org/2000/svg"
 width="449.000000pt" height="449.000000pt" viewBox="0 0 449.000000 449.000000"
 preserveAspectRatio="xMidYMid meet">

<g transform="translate(0.000000,449.000000) scale(0.100000,-0.100000)"
fill="#000000" stroke="none">
<path d="M1201 3367 c-15 -7 -35 -35 -52 -74 -33 -73 -106 -156 -164 -186 -26
-13 -66 -22 -117 -25 -69 -4 -84 -2 -132 22 -66 32 -100 70 -137 153 -33 72
-59 93 -112 93 -43 0 -82 -31 -93 -75 -13 -54 63 -201 144 -277 88 -82 186
-118 321 -118 135 1 245 47 347 145 l47 45 48 -45 c106 -99 216 -145 349 -145
134 0 243 45 350 146 l49 46 31 -35 c81 -93 226 -156 356 -157 138 0 245 44
354 146 l49 46 26 -30 c14 -17 56 -51 93 -76 204 -135 446 -112 624 61 l46 46
53 -52 c32 -32 84 -67 135 -93 77 -38 91 -41 182 -46 110 -5 180 10 265 56
108 58 237 248 223 330 -7 49 -46 82 -94 82 -52 0 -78 -22 -111 -93 -55 -122
-132 -177 -247 -177 -130 0 -231 69 -297 204 -39 80 -57 96 -109 96 -48 0 -75
-23 -108 -94 -42 -88 -90 -140 -165 -177 -60 -29 -71 -31 -139 -27 -55 4 -85
11 -118 31 -63 36 -125 108 -157 180 -30 66 -56 87 -110 87 -42 0 -75 -32
-109 -104 -37 -79 -97 -140 -169 -173 -47 -22 -65 -25 -127 -21 -122 8 -206
71 -271 202 -38 76 -61 96 -114 96 -42 0 -75 -32 -109 -102 -124 -264 -441
-265 -564 -2 -16 35 -41 73 -55 84 -28 22 -75 25 -112 7z"/>
<path d="M830 2493 c-30 -11 -51 -38 -82 -101 -60 -126 -159 -195 -283 -196
-124 -1 -198 50 -259 179 -34 71 -61 95 -107 95 -52 0 -99 -49 -99 -103 0 -45
78 -186 132 -241 179 -178 478 -176 673 6 l59 55 54 -53 c107 -104 271 -159
408 -136 92 15 198 68 269 134 l60 56 62 -58 c201 -188 497 -180 687 19 l40
41 55 -53 c104 -99 206 -141 341 -141 135 0 237 42 341 141 l55 53 40 -41
c113 -118 276 -174 435 -150 154 24 275 115 346 259 49 98 50 143 5 183 -64
58 -126 32 -175 -74 -57 -122 -131 -172 -257 -171 -120 1 -214 64 -275 187
-44 88 -59 105 -100 113 -53 10 -91 -17 -125 -90 -134 -283 -446 -283 -580 0
-34 73 -72 100 -125 90 -41 -8 -56 -25 -100 -113 -61 -123 -155 -186 -275
-187 -122 -1 -224 71 -285 200 -40 84 -74 110 -130 100 -40 -8 -59 -28 -95
-105 -58 -122 -161 -194 -280 -195 -124 0 -230 76 -291 209 -36 80 -82 109
-139 88z"/>
<path d="M1194 1592 c-12 -9 -36 -47 -53 -84 -21 -45 -48 -82 -86 -116 -70
-64 -132 -86 -226 -80 -112 8 -179 60 -232 179 -38 84 -81 110 -143 84 -33
-14 -64 -58 -64 -93 0 -34 77 -177 122 -227 87 -95 205 -145 343 -145 130 0
259 54 349 145 l50 50 57 -56 c64 -62 157 -112 239 -130 71 -15 192 -7 263 19
65 23 177 99 208 141 l20 28 53 -51 c94 -92 222 -146 346 -146 129 1 245 48
341 140 l58 55 46 -48 c119 -122 305 -175 470 -132 79 21 143 57 215 123 l61
54 57 -55 c156 -148 389 -180 575 -80 134 73 261 294 212 369 -33 51 -114 64
-150 24 -9 -10 -33 -51 -53 -91 -59 -118 -141 -165 -267 -157 -113 8 -199 71
-264 198 -45 86 -61 100 -113 100 -49 0 -74 -23 -114 -101 -61 -123 -147 -188
-260 -197 -129 -10 -243 65 -309 204 -38 79 -55 94 -108 94 -47 0 -80 -29
-114 -102 -34 -71 -97 -139 -157 -170 -57 -29 -150 -35 -215 -13 -74 24 -153
100 -192 183 -38 81 -61 101 -115 102 -51 0 -74 -20 -113 -104 -61 -126 -179
-203 -300 -194 -112 8 -203 76 -266 200 -20 39 -44 77 -53 84 -25 19 -93 17
-118 -4z"/>
</g>
</svg>
